<svg xmlns="http://www.w3.org/2000/svg" xmlns:xlink="http://www.w3.org/1999/xlink" width="500" zoomAndPan="magnify" viewBox="0 0 375 374.999991" height="500" preserveAspectRatio="xMidYMid meet" version="1.0"><defs><clipPath id="c96b3e9609"><path d="M 88 105 L 281 105 L 281 275.023438 L 88 275.023438 Z M 88 105 " clip-rule="nonzero"/></clipPath><clipPath id="419bcc680c"><path d="M 37.5 37.5 L 337.5 37.5 L 337.5 337.5 L 37.5 337.5 Z M 37.5 37.5 " clip-rule="nonzero"/></clipPath><clipPath id="51e6bc28ee"><path d="M 59 59 L 315.792969 59 L 315.792969 315.792969 L 59 315.792969 Z M 59 59 " clip-rule="nonzero"/></clipPath></defs><rect x="-37.5" width="450" fill="#ffffff" y="-37.499999" height="449.999989" fill-opacity="1"/><rect x="-37.5" width="450" fill="#ffffff" y="-37.499999" height="449.999989" fill-opacity="1"/><rect x="-37.5" width="450" fill="#ffffff" y="-37.499999" height="449.999989" fill-opacity="1"/><path fill="#eed180" d="M 262.027344 123.800781 C 243.355469 105.261719 213.328125 105.019531 194.339844 122.960938 C 194.214844 123.304688 194.007812 123.621094 193.703125 123.871094 L 140.792969 166.980469 C 138.871094 168.550781 137.671875 170.773438 137.417969 173.242188 C 137.164062 175.714844 137.890625 178.132812 139.457031 180.058594 L 140.671875 181.550781 C 142.238281 183.476562 144.460938 184.675781 146.929688 184.929688 C 149.398438 185.183594 151.820312 184.457031 153.742188 182.890625 L 180.757812 160.878906 C 182.285156 159.632812 195.929688 148.878906 204.945312 153.847656 C 205.960938 154.402344 206.328125 155.675781 205.769531 156.6875 C 205.214844 157.699219 203.941406 158.066406 202.929688 157.511719 C 200.550781 156.199219 197.285156 156.695312 194.046875 157.914062 C 194.230469 160.292969 194.257812 162.695312 194.117188 165.109375 L 214.542969 185.707031 C 214.660156 185.820312 214.753906 185.949219 214.835938 186.085938 L 237.570312 209.144531 C 239.066406 210.640625 240.125 212.460938 240.695312 214.460938 L 262.292969 192.679688 C 281.203125 173.617188 281.082031 142.71875 262.027344 123.800781 " fill-opacity="1" fill-rule="nonzero"/><g clip-path="url(#c96b3e9609)"><path fill="#302e68" d="M 237.570312 209.144531 L 214.835938 186.085938 C 214.753906 185.949219 214.65625 185.820312 214.542969 185.707031 L 194.117188 165.109375 C 194.257812 162.695312 194.230469 160.292969 194.046875 157.914062 C 197.285156 156.695312 200.550781 156.199219 202.929688 157.511719 C 203.945312 158.066406 205.214844 157.699219 205.769531 156.6875 C 206.328125 155.675781 205.960938 154.402344 204.945312 153.84375 C 195.929688 148.878906 182.285156 159.632812 180.757812 160.875 L 153.742188 182.890625 C 151.820312 184.457031 149.398438 185.183594 146.929688 184.929688 C 144.460938 184.675781 142.238281 183.476562 140.671875 181.550781 L 139.457031 180.058594 C 137.890625 178.132812 137.164062 175.710938 137.417969 173.242188 C 137.671875 170.773438 138.871094 168.550781 140.792969 166.980469 L 193.703125 123.871094 C 194.007812 123.621094 194.21875 123.304688 194.339844 122.960938 C 213.328125 105.019531 243.355469 105.261719 262.027344 123.800781 C 281.082031 142.71875 281.203125 173.617188 262.296875 192.679688 L 240.695312 214.460938 C 240.125 212.460938 239.066406 210.640625 237.570312 209.144531 Z M 228.230469 226.84375 C 225.96875 226.878906 223.832031 226.027344 222.253906 224.449219 L 184.777344 186.953125 C 183.957031 186.136719 182.636719 186.136719 181.816406 186.953125 C 181.003906 187.769531 181.003906 189.09375 181.816406 189.910156 L 219.296875 227.40625 C 222.570312 230.683594 222.621094 235.96875 219.40625 239.1875 C 216.191406 242.402344 210.910156 242.355469 207.632812 239.078125 L 170.15625 201.578125 C 169.339844 200.761719 168.015625 200.761719 167.199219 201.578125 C 166.382812 202.398438 166.382812 203.722656 167.199219 204.539062 L 204.675781 242.035156 C 207.953125 245.3125 208.003906 250.597656 204.789062 253.816406 C 201.570312 257.03125 196.289062 256.980469 193.011719 253.703125 L 155.535156 216.207031 C 154.71875 215.390625 153.394531 215.390625 152.578125 216.207031 C 151.761719 217.023438 151.761719 218.347656 152.578125 219.164062 L 190.054688 256.664062 C 193.332031 259.941406 193.382812 265.226562 190.167969 268.441406 C 186.953125 271.660156 181.667969 271.609375 178.394531 268.332031 L 140.917969 230.832031 L 140.972656 230.777344 L 106.789062 196.3125 C 87.882812 177.25 88.003906 146.351562 107.058594 127.433594 C 116.539062 118.023438 128.941406 113.324219 141.34375 113.324219 C 153.871094 113.324219 166.402344 118.121094 175.902344 127.703125 C 176.867188 128.675781 177.789062 129.6875 178.664062 130.730469 L 138.15625 163.738281 C 135.363281 166.011719 133.625 169.234375 133.257812 172.816406 C 132.894531 176.398438 133.941406 179.910156 136.214844 182.699219 L 137.429688 184.191406 C 139.703125 186.984375 142.925781 188.722656 146.503906 189.089844 C 146.972656 189.136719 147.4375 189.164062 147.902344 189.164062 C 150.988281 189.164062 153.957031 188.109375 156.382812 186.132812 L 183.398438 164.121094 C 184.777344 163 187.199219 161.289062 189.96875 159.792969 C 190.058594 161.765625 190.035156 163.757812 189.882812 165.75 C 189.835938 166.355469 190.054688 166.953125 190.484375 167.382812 L 197.609375 174.570312 L 197.613281 174.570312 C 197.617188 174.574219 197.621094 174.578125 197.625 174.585938 L 234.601562 212.09375 C 237.878906 215.371094 237.777344 220.808594 234.371094 224.214844 C 232.710938 225.875 230.53125 226.808594 228.230469 226.84375 Z M 264.972656 120.832031 C 244.28125 100.289062 210.746094 100.421875 190.21875 121.121094 C 189.917969 121.421875 189.625 121.726562 189.335938 122.035156 L 181.902344 128.089844 C 180.941406 126.941406 179.933594 125.828125 178.871094 124.753906 C 158.339844 104.054688 124.804688 103.921875 104.113281 124.464844 C 83.421875 145.003906 83.292969 178.558594 103.824219 199.257812 L 137.632812 233.351562 C 137.722656 233.507812 137.824219 233.660156 137.960938 233.792969 L 175.4375 271.289062 C 177.910156 273.765625 181.152344 275.003906 184.382812 275.003906 C 187.558594 275.003906 190.722656 273.804688 193.125 271.398438 C 194.992188 269.53125 196.125 267.203125 196.539062 264.765625 L 201.105469 260.195312 C 203.613281 259.769531 205.917969 258.601562 207.742188 256.773438 C 209.570312 254.945312 210.742188 252.636719 211.164062 250.128906 L 215.734375 245.558594 C 218.167969 245.144531 220.496094 244.015625 222.363281 242.144531 C 224.230469 240.277344 225.363281 237.945312 225.78125 235.511719 L 230.492188 230.792969 C 232.988281 230.324219 235.386719 229.117188 237.328125 227.175781 C 239.28125 225.21875 240.53125 222.761719 240.980469 220.109375 L 265.261719 195.625 C 285.792969 174.925781 285.664062 141.371094 264.972656 120.832031 " fill-opacity="1" fill-rule="nonzero"/></g><path fill="#fff89c" d="M 234.601562 212.09375 L 197.625 174.585938 C 197.621094 174.578125 197.617188 174.574219 197.609375 174.570312 L 190.484375 167.382812 C 190.054688 166.953125 189.835938 166.355469 189.882812 165.75 C 190.035156 163.757812 190.058594 161.765625 189.96875 159.792969 C 187.199219 161.289062 184.777344 163 183.398438 164.121094 L 156.382812 186.132812 C 153.957031 188.109375 150.988281 189.164062 147.902344 189.164062 C 147.4375 189.164062 146.972656 189.140625 146.503906 189.089844 C 142.925781 188.722656 139.703125 186.984375 137.429688 184.191406 L 136.214844 182.699219 C 133.941406 179.910156 132.894531 176.398438 133.257812 172.816406 C 133.625 169.234375 135.363281 166.011719 138.15625 163.738281 L 178.664062 130.730469 C 177.789062 129.6875 176.867188 128.675781 175.902344 127.703125 C 166.402344 118.121094 153.871094 113.324219 141.34375 113.324219 C 128.941406 113.324219 116.539062 118.023438 107.058594 127.433594 C 88.003906 146.347656 87.882812 177.25 106.789062 196.3125 L 140.972656 230.777344 L 140.917969 230.832031 L 178.394531 268.332031 C 181.667969 271.609375 186.953125 271.660156 190.167969 268.441406 C 193.382812 265.226562 193.332031 259.941406 190.058594 256.664062 L 152.578125 219.164062 C 151.761719 218.347656 151.761719 217.023438 152.578125 216.207031 C 153.394531 215.390625 154.71875 215.390625 155.535156 216.207031 L 193.011719 253.703125 C 196.289062 256.980469 201.570312 257.03125 204.789062 253.816406 C 208.003906 250.597656 207.953125 245.3125 204.675781 242.035156 L 167.199219 204.539062 C 166.382812 203.722656 166.382812 202.398438 167.199219 201.578125 C 168.015625 200.761719 169.339844 200.761719 170.15625 201.578125 L 207.632812 239.078125 C 210.910156 242.355469 216.191406 242.402344 219.40625 239.1875 C 222.621094 235.96875 222.574219 230.683594 219.296875 227.40625 L 181.816406 189.910156 C 181.003906 189.09375 181.003906 187.769531 181.816406 186.953125 C 182.636719 186.136719 183.957031 186.136719 184.777344 186.953125 L 222.253906 224.449219 C 223.832031 226.027344 225.96875 226.878906 228.230469 226.84375 C 230.53125 226.808594 232.710938 225.875 234.371094 224.214844 C 237.777344 220.808594 237.878906 215.371094 234.601562 212.09375 " fill-opacity="1" fill-rule="nonzero"/><g clip-path="url(#419bcc680c)"><path fill="#ff914d" d="M 63.738281 267.105469 C 66.226562 271.015625 69 274.855469 71.84375 278.480469 L 69.640625 280.257812 C 66.726562 276.5625 63.878906 272.652344 61.320312 268.667969 Z M 40.34375 187.605469 L 37.5 187.605469 C 37.5 192.371094 37.714844 197.136719 38.210938 201.828125 L 41.054688 201.542969 C 40.558594 196.992188 40.34375 192.230469 40.34375 187.605469 Z M 40.203125 215.976562 C 41.125 220.601562 42.265625 225.292969 43.542969 229.84375 L 46.246094 229.0625 C 44.964844 224.582031 43.828125 220.03125 42.976562 215.480469 Z M 100.570312 309.695312 C 104.410156 312.46875 108.464844 315.03125 112.589844 317.449219 L 114.011719 314.960938 C 109.957031 312.613281 106.046875 310.050781 102.207031 307.421875 Z M 125.246094 323.917969 C 129.582031 325.910156 133.992188 327.6875 138.472656 329.25 L 139.394531 326.550781 C 134.988281 325.054688 130.648438 323.277344 126.382812 321.359375 Z M 152.265625 333.234375 C 156.886719 334.371094 161.582031 335.222656 166.273438 335.9375 L 166.703125 333.089844 C 162.078125 332.453125 157.457031 331.527344 152.976562 330.460938 Z M 81.089844 289.078125 L 79.027344 291.066406 C 82.296875 294.480469 85.78125 297.824219 89.335938 300.878906 L 91.1875 298.746094 C 87.703125 295.6875 84.289062 292.417969 81.089844 289.078125 Z M 152.550781 44.398438 L 151.910156 41.625 C 147.289062 42.761719 142.667969 44.113281 138.1875 45.675781 L 139.113281 48.378906 C 143.519531 46.886719 148.070312 45.535156 152.550781 44.398438 Z M 165.917969 38.992188 L 166.34375 41.835938 C 170.96875 41.199219 175.660156 40.699219 180.28125 40.488281 L 180.140625 37.640625 C 175.375 37.855469 170.613281 38.28125 165.917969 38.992188 Z M 126.171875 53.640625 L 124.960938 51.082031 C 120.625 53.074219 116.429688 55.277344 112.304688 57.625 L 113.726562 60.113281 C 117.78125 57.695312 121.902344 55.5625 126.171875 53.640625 Z M 336.789062 172.816406 C 336.363281 168.125 335.652344 163.359375 334.726562 158.667969 L 331.953125 159.234375 C 332.808594 163.785156 333.519531 168.480469 333.945312 173.101562 Z M 42.976562 159.734375 L 40.203125 159.234375 C 39.347656 163.855469 38.636719 168.621094 38.210938 173.386719 L 41.054688 173.667969 C 41.410156 168.976562 42.050781 164.285156 42.976562 159.734375 Z M 101.992188 67.648438 L 100.359375 65.304688 C 96.519531 68.074219 92.75 71.0625 89.125 74.121094 L 90.972656 76.253906 C 94.457031 73.265625 98.152344 70.351562 101.992188 67.648438 Z M 50.796875 132.925781 L 48.167969 131.859375 C 46.386719 136.265625 44.824219 140.816406 43.542969 145.371094 L 46.246094 146.152344 C 47.527344 141.671875 49.019531 137.191406 50.796875 132.925781 Z M 80.875 85.996094 L 78.8125 84.003906 C 75.542969 87.417969 72.414062 91.042969 69.5 94.8125 L 71.703125 96.589844 C 74.546875 92.964844 77.675781 89.40625 80.875 85.996094 Z M 63.597656 108.039062 L 61.179688 106.472656 C 58.617188 110.457031 56.199219 114.652344 54.066406 118.847656 L 56.628906 120.125 C 58.691406 116.003906 61.035156 111.949219 63.597656 108.039062 Z M 48.238281 243.355469 C 50.015625 247.761719 52.003906 252.101562 54.210938 256.296875 L 56.769531 255.015625 C 54.636719 250.890625 52.644531 246.625 50.9375 242.289062 Z M 283.886719 298.605469 L 285.734375 300.738281 C 289.289062 297.609375 292.773438 294.339844 296.042969 290.855469 L 293.984375 288.863281 C 290.855469 292.277344 287.441406 295.546875 283.886719 298.605469 Z M 313.535156 106.046875 L 311.121094 107.613281 C 313.679688 111.523438 316.027344 115.574219 318.160156 119.699219 L 320.71875 118.417969 C 318.515625 114.222656 316.097656 110.027344 313.535156 106.046875 Z M 295.832031 83.71875 L 293.769531 85.710938 C 296.96875 89.050781 300.097656 92.609375 302.941406 96.304688 L 305.144531 94.527344 C 302.300781 90.757812 299.171875 87.132812 295.832031 83.71875 Z M 318.371094 254.800781 L 320.933594 256.082031 C 323.136719 251.886719 325.128906 247.480469 326.832031 243.070312 L 324.203125 242.003906 C 322.425781 246.410156 320.503906 250.679688 318.371094 254.800781 Z M 303.226562 278.339844 L 305.429688 280.117188 C 308.347656 276.417969 311.121094 272.507812 313.75 268.527344 L 311.332031 266.960938 C 308.84375 270.871094 306.070312 274.710938 303.226562 278.339844 Z M 334.65625 187.109375 L 334.65625 187.464844 C 334.65625 192.15625 334.441406 196.851562 334.015625 201.472656 L 336.859375 201.757812 C 337.285156 197.0625 337.5 192.230469 337.5 187.535156 L 337.5 187.179688 L 334.65625 187.179688 Z M 328.753906 228.847656 L 331.457031 229.628906 C 332.808594 225.078125 333.945312 220.386719 334.796875 215.765625 L 332.023438 215.195312 C 331.171875 219.816406 330.035156 224.441406 328.753906 228.847656 Z M 326.691406 131.359375 L 324.0625 132.425781 C 325.765625 136.765625 327.332031 141.175781 328.683594 145.652344 L 331.386719 144.871094 C 330.035156 140.320312 328.46875 135.769531 326.691406 131.359375 Z M 180.566406 334.441406 L 180.425781 337.285156 C 182.769531 337.429688 185.117188 337.429688 187.464844 337.429688 C 189.882812 337.429688 192.300781 337.359375 194.71875 337.285156 L 194.574219 334.441406 C 189.953125 334.65625 185.261719 334.65625 180.566406 334.441406 Z M 222.589844 41.554688 L 221.953125 44.328125 C 226.503906 45.394531 230.980469 46.742188 235.390625 48.238281 L 236.316406 45.535156 C 231.835938 43.972656 227.214844 42.621094 222.589844 41.554688 Z M 208.511719 333.089844 L 208.9375 335.9375 C 213.632812 335.296875 218.324219 334.371094 222.945312 333.234375 L 222.308594 330.460938 C 217.757812 331.527344 213.132812 332.453125 208.511719 333.089844 Z M 274.285156 65.019531 L 272.652344 67.363281 C 276.417969 70.066406 280.117188 72.980469 283.671875 76.039062 L 285.519531 73.90625 C 281.894531 70.777344 278.125 67.792969 274.285156 65.019531 Z M 194.363281 37.570312 L 194.21875 40.414062 C 198.839844 40.628906 203.535156 41.054688 208.15625 41.695312 L 208.582031 38.851562 C 203.890625 38.210938 199.125 37.785156 194.363281 37.570312 Z M 261.132812 314.886719 L 262.554688 317.375 C 266.675781 315.03125 270.660156 312.398438 274.570312 309.625 L 272.933594 307.28125 C 269.09375 309.980469 265.183594 312.542969 261.132812 314.886719 Z M 235.675781 326.476562 L 236.597656 329.179688 C 241.078125 327.617188 245.558594 325.839844 249.824219 323.847656 L 248.6875 321.289062 C 244.492188 323.207031 240.082031 324.984375 235.675781 326.476562 Z M 249.539062 50.796875 L 248.332031 53.355469 C 252.527344 55.277344 256.722656 57.410156 260.777344 59.757812 L 262.199219 57.269531 C 258.144531 54.992188 253.878906 52.789062 249.539062 50.796875 Z M 249.539062 50.796875 " fill-opacity="1" fill-rule="nonzero"/></g><g clip-path="url(#51e6bc28ee)"><path fill="#ffbd59" d="M 187.398438 315.792969 C 153.117188 315.792969 120.839844 302.453125 96.617188 278.179688 C 72.34375 253.957031 59 221.675781 59 187.398438 C 59 153.117188 72.34375 120.839844 96.617188 96.617188 C 120.839844 72.34375 153.117188 59 187.398438 59 C 221.675781 59 253.957031 72.34375 278.179688 96.617188 C 302.453125 120.890625 315.792969 153.117188 315.792969 187.398438 C 315.792969 221.675781 302.453125 253.957031 278.179688 278.179688 C 253.957031 302.453125 221.675781 315.792969 187.398438 315.792969 Z M 187.398438 66.699219 C 155.167969 66.699219 124.839844 79.269531 102.054688 102.054688 C 79.269531 124.839844 66.699219 155.167969 66.699219 187.398438 C 66.699219 219.625 79.269531 249.953125 102.054688 272.738281 C 124.839844 295.523438 155.167969 308.097656 187.398438 308.097656 C 219.625 308.097656 249.953125 295.523438 272.738281 272.738281 C 295.523438 249.953125 308.097656 219.625 308.097656 187.398438 C 308.097656 155.167969 295.523438 124.839844 272.738281 102.054688 C 249.953125 79.269531 219.625 66.699219 187.398438 66.699219 Z M 187.398438 66.699219 " fill-opacity="1" fill-rule="nonzero"/></g></svg>